<svg width="128" height="192" viewBox="0 0 128 192" fill="none" xmlns="http://www.w3.org/2000/svg">
<rect width="64" height="128" fill="#552049"/>
<circle cx="32" cy="32" r="14" stroke="#FFF7F0" stroke-width="4"/>
<rect x="64" y="32" width="64" height="32" rx="16" fill="#F6A560"/>
<path fill-rule="evenodd" clip-rule="evenodd" d="M32 160L64 192V160H32Z" fill="#61C4B7"/>
<path fill-rule="evenodd" clip-rule="evenodd" d="M64 128L96 160V128H64Z" fill="#61C4B7"/>
<circle cx="112" cy="48" r="14" stroke="#FFF7F0" stroke-width="4"/>
<circle cx="112" cy="48" r="14" stroke="#FFF7F0" stroke-width="4"/>
<rect x="64" y="14" width="4" height="4" fill="#030303"/>
<rect x="68" y="14" width="4" height="4" fill="#030303"/>
<rect x="92" y="14" width="4" height="4" fill="#030303"/>
<path fill-rule="evenodd" clip-rule="evenodd" d="M96 0L128 32V0H96Z" fill="#755CDE"/>
<rect x="96" y="14" width="4" height="4" fill="#030303"/>
<rect x="120" y="14" width="4" height="4" fill="#030303"/>
<rect x="124" y="14" width="4" height="4" fill="#030303"/>
<circle cx="80" cy="80" r="14" stroke="#030303" stroke-width="4"/>
<rect x="96" y="64" width="32" height="32" fill="#EB7565"/>
<path fill-rule="evenodd" clip-rule="evenodd" d="M32 96L128 192V96H32Z" fill="#FFF7F0"/>
<rect y="128" width="4" height="4" fill="#030303"/>
<rect x="14" y="128" width="4" height="4" fill="#030303"/>
<rect x="28" y="128" width="4" height="4" fill="#030303"/>
<rect y="142" width="4" height="4" fill="#030303"/>
<rect x="14" y="142" width="4" height="4" fill="#030303"/>
<rect x="28" y="142" width="4" height="4" fill="#030303"/>
<rect y="156" width="4" height="4" fill="#030303"/>
<rect x="14" y="156" width="4" height="4" fill="#030303"/>
<rect x="28" y="156" width="4" height="4" fill="#030303"/>
</svg>
