<svg width="48" height="48" viewBox="0 0 48 48" fill="none" xmlns="http://www.w3.org/2000/svg">
<rect width="48" height="48" rx="24" fill="#437EF7"/>
<path d="M18.2769 16.3915C18.5268 15.8694 18.6667 15.2845 18.6667 14.667C18.6667 12.4579 16.8759 10.667 14.6667 10.667C12.4576 10.667 10.6667 12.4579 10.6667 14.667C10.6667 16.8761 12.4576 18.667 14.6667 18.667C15.2843 18.667 15.8691 18.5271 16.3913 18.2772L18.4379 20.3238C17.7399 21.3777 17.3334 22.6416 17.3334 24.0003C17.3334 25.3591 17.7399 26.6229 18.4379 27.6768L16.6908 29.424C16.4705 29.3651 16.239 29.3337 16.0001 29.3337C14.5273 29.3337 13.3334 30.5276 13.3334 32.0003C13.3334 33.4731 14.5273 34.667 16.0001 34.667C17.4728 34.667 18.6667 33.4731 18.6667 32.0003C18.6667 31.7614 18.6353 31.5299 18.5764 31.3096L20.3236 29.5625C21.3775 30.2605 22.6413 30.667 24.0001 30.667C25.3589 30.667 26.6227 30.2605 27.6766 29.5625L29.7232 31.6091C29.4734 32.1313 29.3334 32.7161 29.3334 33.3337C29.3334 35.5428 31.1243 37.3337 33.3334 37.3337C35.5426 37.3337 37.3334 35.5428 37.3334 33.3337C37.3334 31.1245 35.5426 29.3337 33.3334 29.3337C32.7159 29.3337 32.131 29.4736 31.6089 29.7235L29.5622 27.6768C30.2602 26.6229 30.6667 25.3591 30.6667 24.0003C30.6667 22.6416 30.2602 21.3777 29.5622 20.3238L31.3094 18.5767C31.5297 18.6356 31.7612 18.667 32.0001 18.667C33.4728 18.667 34.6667 17.4731 34.6667 16.0003C34.6667 14.5276 33.4728 13.3337 32.0001 13.3337C30.5273 13.3337 29.3334 14.5276 29.3334 16.0003C29.3334 16.2392 29.3648 16.4707 29.4237 16.6911L27.6766 18.4382C26.6227 17.7402 25.3589 17.3337 24.0001 17.3337C22.6413 17.3337 21.3775 17.7402 20.3236 18.4382L18.2769 16.3915Z" fill="white"/>
</svg>
